<mxfile host="Electron" modified="2024-06-16T15:55:13.268Z" agent="Mozilla/5.0 (Windows NT 10.0; Win64; x64) AppleWebKit/537.36 (KHTML, like Gecko) draw.io/24.4.0 Chrome/120.0.6099.109 Electron/28.1.0 Safari/537.36" etag="3AaYj6D3V9sLnCpJ9xgk" version="24.4.0" type="device">
  <diagram name="Page-1" id="uWRijJN-dXL2GQfnmDtu">
    <mxGraphModel dx="714" dy="485" grid="1" gridSize="10" guides="1" tooltips="1" connect="1" arrows="1" fold="1" page="1" pageScale="1" pageWidth="827" pageHeight="1169" math="0" shadow="0">
      <root>
        <mxCell id="0" />
        <mxCell id="1" parent="0" />
        <mxCell id="inUEJ0NJWtylzr5hE0oD-1" value="Rl = 10kOhm" style="pointerEvents=1;verticalLabelPosition=bottom;shadow=0;dashed=0;align=center;html=1;verticalAlign=top;shape=mxgraph.electrical.resistors.resistor_1;fontColor=#000000;strokeColor=#000000;labelBackgroundColor=none;" parent="1" vertex="1">
          <mxGeometry x="364" y="190" width="100" height="20" as="geometry" />
        </mxCell>
        <mxCell id="inUEJ0NJWtylzr5hE0oD-2" value="Rr = 10kOhm" style="pointerEvents=1;verticalLabelPosition=bottom;shadow=0;dashed=0;align=center;html=1;verticalAlign=top;shape=mxgraph.electrical.resistors.resistor_1;fontColor=#000000;strokeColor=#000000;labelBackgroundColor=none;" parent="1" vertex="1">
          <mxGeometry x="364" y="260" width="100" height="20" as="geometry" />
        </mxCell>
        <mxCell id="inUEJ0NJWtylzr5hE0oD-3" value="Canal Audio Droit" style="endArrow=none;html=1;rounded=0;strokeColor=#0000CC;fontColor=#000000;labelBackgroundColor=none;" parent="1" edge="1">
          <mxGeometry x="-0.8118" y="10" width="50" height="50" relative="1" as="geometry">
            <mxPoint x="194" y="269.86" as="sourcePoint" />
            <mxPoint x="364" y="269.86" as="targetPoint" />
            <mxPoint as="offset" />
          </mxGeometry>
        </mxCell>
        <mxCell id="inUEJ0NJWtylzr5hE0oD-4" value="Canal Audio Gauche" style="endArrow=none;html=1;rounded=0;strokeColor=#FF0000;fontColor=#000000;labelBackgroundColor=none;" parent="1" edge="1">
          <mxGeometry x="-0.8118" y="10" width="50" height="50" relative="1" as="geometry">
            <mxPoint x="194" y="199.86" as="sourcePoint" />
            <mxPoint x="364" y="199.86" as="targetPoint" />
            <mxPoint as="offset" />
          </mxGeometry>
        </mxCell>
        <mxCell id="inUEJ0NJWtylzr5hE0oD-5" value="" style="endArrow=none;html=1;rounded=0;exitX=1;exitY=0.5;exitDx=0;exitDy=0;exitPerimeter=0;strokeColor=#6600CC;fontColor=#000000;labelBackgroundColor=none;" parent="1" source="inUEJ0NJWtylzr5hE0oD-2" edge="1">
          <mxGeometry width="50" height="50" relative="1" as="geometry">
            <mxPoint x="510" y="310" as="sourcePoint" />
            <mxPoint x="520" y="270" as="targetPoint" />
          </mxGeometry>
        </mxCell>
        <mxCell id="inUEJ0NJWtylzr5hE0oD-6" value="Sortie Audio Mono" style="endArrow=none;html=1;rounded=0;exitX=1;exitY=0.5;exitDx=0;exitDy=0;exitPerimeter=0;strokeColor=#6600CC;fontColor=#000000;labelBackgroundColor=none;" parent="1" edge="1">
          <mxGeometry x="1" y="41" width="50" height="50" relative="1" as="geometry">
            <mxPoint x="464" y="199.79000000000002" as="sourcePoint" />
            <mxPoint x="560" y="199.79000000000002" as="targetPoint" />
            <mxPoint x="40" y="31" as="offset" />
          </mxGeometry>
        </mxCell>
        <mxCell id="inUEJ0NJWtylzr5hE0oD-7" value="" style="endArrow=none;html=1;rounded=0;strokeColor=#6600CC;fontColor=#000000;labelBackgroundColor=none;" parent="1" edge="1">
          <mxGeometry width="50" height="50" relative="1" as="geometry">
            <mxPoint x="520" y="200" as="sourcePoint" />
            <mxPoint x="520" y="270" as="targetPoint" />
          </mxGeometry>
        </mxCell>
        <mxCell id="inUEJ0NJWtylzr5hE0oD-8" value="" style="endArrow=none;html=1;rounded=0;exitX=1;exitY=0.5;exitDx=0;exitDy=0;exitPerimeter=0;strokeColor=#6600CC;fontColor=#000000;labelBackgroundColor=none;" parent="1" edge="1">
          <mxGeometry width="50" height="50" relative="1" as="geometry">
            <mxPoint x="560" y="199.79000000000002" as="sourcePoint" />
            <mxPoint x="600" y="200" as="targetPoint" />
          </mxGeometry>
        </mxCell>
        <mxCell id="inUEJ0NJWtylzr5hE0oD-9" value="Entree Stereo" style="shape=curlyBracket;whiteSpace=wrap;html=1;rounded=1;labelPosition=left;verticalLabelPosition=middle;align=right;verticalAlign=middle;fontColor=#000000;strokeColor=#000000;labelBackgroundColor=none;" parent="1" vertex="1">
          <mxGeometry x="130" y="160" width="20" height="120" as="geometry" />
        </mxCell>
        <mxCell id="inUEJ0NJWtylzr5hE0oD-10" value="R1&lt;span style=&quot;&quot;&gt;&amp;nbsp;= 10kOhm&lt;/span&gt;" style="pointerEvents=1;verticalLabelPosition=bottom;shadow=0;dashed=0;align=center;html=1;verticalAlign=top;shape=mxgraph.electrical.resistors.resistor_1;rotation=-90;fontColor=#000000;strokeColor=#000000;labelBackgroundColor=none;" parent="1" vertex="1">
          <mxGeometry x="470" y="360" width="100" height="20" as="geometry" />
        </mxCell>
        <mxCell id="inUEJ0NJWtylzr5hE0oD-11" value="" style="endArrow=none;html=1;rounded=0;strokeColor=#6600CC;entryX=1;entryY=0.5;entryDx=0;entryDy=0;entryPerimeter=0;fontColor=#000000;labelBackgroundColor=none;" parent="1" target="inUEJ0NJWtylzr5hE0oD-10" edge="1">
          <mxGeometry width="50" height="50" relative="1" as="geometry">
            <mxPoint x="520" y="270" as="sourcePoint" />
            <mxPoint x="530" y="280" as="targetPoint" />
          </mxGeometry>
        </mxCell>
        <mxCell id="inUEJ0NJWtylzr5hE0oD-12" value="R3 = 1kOhm" style="pointerEvents=1;verticalLabelPosition=bottom;shadow=0;dashed=0;align=center;html=1;verticalAlign=top;shape=mxgraph.electrical.resistors.resistor_1;rotation=0;fontColor=#000000;strokeColor=#000000;labelBackgroundColor=none;" parent="1" vertex="1">
          <mxGeometry x="560" y="430" width="100" height="20" as="geometry" />
        </mxCell>
        <mxCell id="inUEJ0NJWtylzr5hE0oD-13" value="R2 =1kOhm" style="pointerEvents=1;verticalLabelPosition=bottom;shadow=0;dashed=0;align=center;html=1;verticalAlign=top;shape=mxgraph.electrical.resistors.resistor_1;rotation=0;fontColor=#000000;strokeColor=#000000;labelBackgroundColor=none;" parent="1" vertex="1">
          <mxGeometry x="380" y="430" width="100" height="20" as="geometry" />
        </mxCell>
        <mxCell id="inUEJ0NJWtylzr5hE0oD-14" value="" style="endArrow=none;html=1;rounded=0;exitX=1;exitY=0.5;exitDx=0;exitDy=0;exitPerimeter=0;strokeColor=#FF8000;entryX=0;entryY=0.5;entryDx=0;entryDy=0;entryPerimeter=0;fontColor=#000000;labelBackgroundColor=none;" parent="1" target="inUEJ0NJWtylzr5hE0oD-12" edge="1">
          <mxGeometry width="50" height="50" relative="1" as="geometry">
            <mxPoint x="480" y="439.76" as="sourcePoint" />
            <mxPoint x="536" y="439.76" as="targetPoint" />
          </mxGeometry>
        </mxCell>
        <mxCell id="inUEJ0NJWtylzr5hE0oD-24" value="+ 2.5 Volts" style="edgeLabel;html=1;align=center;verticalAlign=middle;resizable=0;points=[];fontColor=#000000;labelBackgroundColor=none;" parent="inUEJ0NJWtylzr5hE0oD-14" vertex="1" connectable="0">
          <mxGeometry x="0.0141" y="-1" relative="1" as="geometry">
            <mxPoint y="9" as="offset" />
          </mxGeometry>
        </mxCell>
        <mxCell id="inUEJ0NJWtylzr5hE0oD-15" value="" style="endArrow=none;html=1;rounded=0;strokeColor=#FF8000;entryX=0;entryY=0.5;entryDx=0;entryDy=0;entryPerimeter=0;fontColor=#000000;labelBackgroundColor=none;" parent="1" target="inUEJ0NJWtylzr5hE0oD-10" edge="1">
          <mxGeometry width="50" height="50" relative="1" as="geometry">
            <mxPoint x="520" y="440" as="sourcePoint" />
            <mxPoint x="540" y="290" as="targetPoint" />
          </mxGeometry>
        </mxCell>
        <mxCell id="inUEJ0NJWtylzr5hE0oD-17" value="" style="pointerEvents=1;verticalLabelPosition=bottom;shadow=0;dashed=0;align=center;html=1;verticalAlign=top;shape=mxgraph.electrical.signal_sources.source;aspect=fixed;points=[[0.5,0,0],[1,0.5,0],[0.5,1,0],[0,0.5,0]];elSignalType=dc3;rotation=-90;fontColor=#000000;strokeColor=#000000;labelBackgroundColor=none;" parent="1" vertex="1">
          <mxGeometry x="490" y="540" width="60" height="60" as="geometry" />
        </mxCell>
        <mxCell id="inUEJ0NJWtylzr5hE0oD-18" value="" style="endArrow=none;html=1;rounded=0;strokeColor=#00CC00;entryX=0;entryY=0.5;entryDx=0;entryDy=0;entryPerimeter=0;fontColor=#000000;labelBackgroundColor=none;" parent="1" edge="1">
          <mxGeometry width="50" height="50" relative="1" as="geometry">
            <mxPoint x="380" y="570" as="sourcePoint" />
            <mxPoint x="490" y="570" as="targetPoint" />
          </mxGeometry>
        </mxCell>
        <mxCell id="inUEJ0NJWtylzr5hE0oD-25" value="+ 5 Volts" style="edgeLabel;html=1;align=center;verticalAlign=middle;resizable=0;points=[];fontColor=#000000;labelBackgroundColor=none;" parent="inUEJ0NJWtylzr5hE0oD-18" vertex="1" connectable="0">
          <mxGeometry x="-0.1295" y="-2" relative="1" as="geometry">
            <mxPoint x="-78" y="-52" as="offset" />
          </mxGeometry>
        </mxCell>
        <mxCell id="inUEJ0NJWtylzr5hE0oD-19" value="" style="endArrow=none;html=1;rounded=0;exitX=0;exitY=0.5;exitDx=0;exitDy=0;exitPerimeter=0;strokeColor=#00CC00;fontColor=#000000;labelBackgroundColor=none;" parent="1" source="inUEJ0NJWtylzr5hE0oD-13" edge="1">
          <mxGeometry width="50" height="50" relative="1" as="geometry">
            <mxPoint x="500" y="459.76" as="sourcePoint" />
            <mxPoint x="380" y="570" as="targetPoint" />
          </mxGeometry>
        </mxCell>
        <mxCell id="inUEJ0NJWtylzr5hE0oD-20" value="" style="endArrow=none;html=1;rounded=0;exitX=0;exitY=0.5;exitDx=0;exitDy=0;exitPerimeter=0;strokeColor=#000000;fontColor=#000000;labelBackgroundColor=none;" parent="1" edge="1">
          <mxGeometry width="50" height="50" relative="1" as="geometry">
            <mxPoint x="660" y="440" as="sourcePoint" />
            <mxPoint x="660" y="570" as="targetPoint" />
          </mxGeometry>
        </mxCell>
        <mxCell id="inUEJ0NJWtylzr5hE0oD-26" value="GND" style="edgeLabel;html=1;align=center;verticalAlign=middle;resizable=0;points=[];fontColor=#000000;labelBackgroundColor=none;" parent="inUEJ0NJWtylzr5hE0oD-20" vertex="1" connectable="0">
          <mxGeometry x="0.2206" relative="1" as="geometry">
            <mxPoint x="20" as="offset" />
          </mxGeometry>
        </mxCell>
        <mxCell id="inUEJ0NJWtylzr5hE0oD-21" value="" style="endArrow=none;html=1;rounded=0;strokeColor=#000000;entryX=0;entryY=0.5;entryDx=0;entryDy=0;entryPerimeter=0;fontColor=#000000;labelBackgroundColor=none;" parent="1" edge="1">
          <mxGeometry width="50" height="50" relative="1" as="geometry">
            <mxPoint x="550" y="569.76" as="sourcePoint" />
            <mxPoint x="660" y="569.76" as="targetPoint" />
          </mxGeometry>
        </mxCell>
      </root>
    </mxGraphModel>
  </diagram>
</mxfile>
